<svg xmlns="http://www.w3.org/2000/svg" width="320" height="80" viewBox="0 0 320 80" role="img" aria-labelledby="title desc"><title id="title">Conversion icons</title><desc id="desc">Original simple line icons for trust, performance, analytics and testing.</desc><g fill="none" stroke="#0f172a" stroke-width="3" stroke-linecap="round" stroke-linejoin="round"><path d="M24 42l10 10 22-26"/><rect x="12" y="14" width="56" height="52" rx="8"/><path d="M104 54V28m18 26V18m18 36V38"/><rect x="92" y="12" width="60" height="56" rx="8"/><path d="M188 54l14-14 12 9 20-26"/><circle cx="188" cy="54" r="4"/><circle cx="202" cy="40" r="4"/><circle cx="214" cy="49" r="4"/><circle cx="234" cy="23" r="4"/><rect x="176" y="12" width="72" height="56" rx="8"/><path d="M280 24h28M280 40h20M280 56h12"/><rect x="268" y="12" width="40" height="56" rx="8"/></g></svg>